<?xml version="1.0" encoding="UTF-8" standalone="no"?>
<!DOCTYPE svg PUBLIC "-//W3C//DTD SVG 1.1//EN" "http://www.w3.org/Graphics/SVG/1.1/DTD/svg11.dtd">
<svg width="100%" height="100%" viewBox="0 0 157 83" version="1.1" xmlns="http://www.w3.org/2000/svg" xmlns:xlink="http://www.w3.org/1999/xlink" xml:space="preserve" xmlns:serif="http://www.serif.com/" style="fill-rule:evenodd;clip-rule:evenodd;stroke-linejoin:round;stroke-miterlimit:2;">
    <g id="Artboard1" transform="matrix(1.50962,0,0,0.943182,27.1731,14.1477)">
        <rect x="-18" y="-15" width="104" height="88" style="fill:none;"/>
        <g transform="matrix(0.66242,0,0,1.06024,-859.439,-1211.22)">
            <g transform="matrix(1.47431,-2.77556e-17,-8.32667e-17,1.47431,1296,1154)">
                <path d="M0,-17.466C-9.64,-17.466 -17.466,-9.64 -17.466,0C-17.466,9.64 -9.64,17.466 0,17.466C9.64,17.466 17.466,9.64 17.466,0C17.466,-9.64 9.64,-17.466 0,-17.466ZM0,-15.092C8.329,-15.092 15.092,-8.329 15.092,0C15.092,8.329 8.329,15.092 0,15.092C-8.329,15.092 -15.092,8.329 -15.092,0C-15.092,-8.329 -8.329,-15.092 0,-15.092Z" style="fill:rgb(17,17,17);"/>
            </g>
            <g transform="matrix(1,0,0,1,124,-47)">
                <path d="M1184.22,1200.12C1184.24,1200.41 1184.25,1200.7 1184.25,1201C1184.25,1207.76 1178.76,1213.25 1172,1213.25C1165.24,1213.25 1159.75,1207.76 1159.75,1201C1159.75,1200.7 1159.76,1200.41 1159.78,1200.12C1159.85,1199.16 1159.12,1198.32 1158.16,1198.25C1157.19,1198.19 1156.36,1198.91 1156.29,1199.88C1156.26,1200.25 1156.25,1200.62 1156.25,1201C1156.25,1209.69 1163.31,1216.75 1172,1216.75C1180.69,1216.75 1187.75,1209.69 1187.75,1201C1187.75,1200.62 1187.74,1200.25 1187.71,1199.88C1187.64,1198.91 1186.81,1198.19 1185.84,1198.25C1184.88,1198.32 1184.15,1199.16 1184.22,1200.12Z" style="fill:rgb(17,17,17);"/>
            </g>
        </g>
        <g transform="matrix(0.66242,0,0,1.06024,-13.3631,-31.9639)">
            <path d="M5.881,93.68C5.881,93.68 9.572,83.865 25.93,75.271C37.6,69.14 58.258,66.483 58.258,66.483C59.25,66.354 59.995,65.512 60,64.511C60,64.511 60.029,62.255 59.034,59.329C59.028,59.311 59.022,59.292 59.015,59.274C59.34,59.528 59.672,59.809 60.008,60.12C62.48,62.408 63.041,64.901 63.041,64.901C63.253,65.94 64.24,66.632 65.289,66.479C65.289,66.479 89.247,62.986 113.413,70.412C132.251,76.201 142.665,85.49 142.665,85.49C143.488,86.226 144.753,86.157 145.49,85.335C146.226,84.512 146.157,83.247 145.335,82.51C145.335,82.51 134.408,72.679 114.587,66.588C93.378,60.071 72.322,61.675 66.37,62.319C65.794,60.961 64.704,59.016 62.725,57.185C56.766,51.669 51.55,53.051 51.55,53.051C50.661,53.257 50.024,54.037 50.001,54.95C49.978,55.862 50.575,56.674 51.452,56.924C51.452,56.924 54.269,57.74 55.247,60.616C55.525,61.435 55.701,62.183 55.812,62.799C50.262,63.656 34.03,66.497 24.07,71.729C5.982,81.232 2.119,92.32 2.119,92.32C1.744,93.358 2.282,94.506 3.32,94.881C4.358,95.256 5.506,94.718 5.881,93.68Z"/>
        </g>
    </g>
</svg>
