<?xml version="1.0" encoding="UTF-8" standalone="no"?>
<!DOCTYPE svg PUBLIC "-//W3C//DTD SVG 1.1//EN" "http://www.w3.org/Graphics/SVG/1.1/DTD/svg11.dtd">
<svg width="100%" height="100%" viewBox="0 0 256 113" version="1.1" xmlns="http://www.w3.org/2000/svg" xmlns:xlink="http://www.w3.org/1999/xlink" xml:space="preserve" xmlns:serif="http://www.serif.com/" style="fill-rule:evenodd;clip-rule:evenodd;stroke-linejoin:round;stroke-miterlimit:2;">
    <g id="Artboard2" transform="matrix(1,0,0,1.0463,0,0)">
        <rect x="0" y="0" width="256" height="108" style="fill:none;"/>
        <clipPath id="_clip1">
            <rect x="0" y="0" width="256" height="108"/>
        </clipPath>
        <g clip-path="url(#_clip1)">
            <g id="Artboard1" transform="matrix(2.46154,0,0,1.17297,44.3077,17.5945)">
                <rect x="-18" y="-15" width="104" height="88" style="fill:none;"/>
                <g>
                    <g transform="matrix(0.40625,0,0,0.814815,-521.039,-934.315)">
                        <g transform="matrix(1.47431,-2.77556e-17,-8.32667e-17,1.47431,1296,1154)">
                            <path d="M0,-17.466C-9.64,-17.466 -17.466,-9.64 -17.466,0C-17.466,9.64 -9.64,17.466 0,17.466C9.64,17.466 17.466,9.64 17.466,0C17.466,-9.64 9.64,-17.466 0,-17.466ZM0,-15.092C8.329,-15.092 15.092,-8.329 15.092,0C15.092,8.329 8.329,15.092 0,15.092C-8.329,15.092 -15.092,8.329 -15.092,0C-15.092,-8.329 -8.329,-15.092 0,-15.092Z" style="fill:rgb(196,192,154);"/>
                        </g>
                        <g transform="matrix(1,0,0,1,124,-47)">
                            <path d="M1184.22,1200.12C1184.24,1200.41 1184.25,1200.7 1184.25,1201C1184.25,1207.76 1178.76,1213.25 1172,1213.25C1165.24,1213.25 1159.75,1207.76 1159.75,1201C1159.75,1200.7 1159.76,1200.41 1159.78,1200.12C1159.85,1199.16 1159.12,1198.32 1158.16,1198.25C1157.19,1198.19 1156.36,1198.91 1156.29,1199.88C1156.26,1200.25 1156.25,1200.62 1156.25,1201C1156.25,1209.69 1163.31,1216.75 1172,1216.75C1180.69,1216.75 1187.75,1209.69 1187.75,1201C1187.75,1200.62 1187.74,1200.25 1187.71,1199.88C1187.64,1198.91 1186.81,1198.19 1185.84,1198.25C1184.88,1198.32 1184.15,1199.16 1184.22,1200.12Z" style="fill:rgb(196,192,154);"/>
                        </g>
                    </g>
                    <g transform="matrix(0.673214,0,0,1.35026,-16.2241,-54.2042)">
                        <path d="M5.135,93.41C5.135,93.41 8.86,83.343 25.561,74.568C37.329,68.386 58.156,65.697 58.156,65.697C58.754,65.619 59.204,65.11 59.207,64.506C59.207,64.506 59.229,62.365 58.283,59.584C57.944,58.585 57.461,57.747 56.916,57.046C58.02,57.558 59.256,58.343 60.547,59.538C63.231,62.022 63.818,64.742 63.818,64.742C63.946,65.369 64.541,65.787 65.174,65.694C65.174,65.694 89.306,62.174 113.645,69.654C132.679,75.502 143.195,84.899 143.195,84.899C143.691,85.343 144.454,85.301 144.899,84.805C145.343,84.309 145.301,83.546 144.805,83.101C144.805,83.101 133.98,73.377 114.355,67.346C92.478,60.624 70.766,62.601 65.855,63.175C65.395,61.923 64.356,59.775 62.187,57.767C56.596,52.593 51.728,53.824 51.728,53.824C51.192,53.948 50.807,54.419 50.793,54.97C50.78,55.52 51.14,56.01 51.67,56.161C51.67,56.161 54.884,57.085 55.998,60.361C56.425,61.616 56.622,62.715 56.714,63.463C52.152,64.138 34.844,66.965 24.439,72.432C6.694,81.754 2.865,92.59 2.865,92.59C2.639,93.216 2.963,93.909 3.59,94.135C4.216,94.361 4.909,94.037 5.135,93.41Z" style="fill:rgb(221,221,221);"/>
                    </g>
                </g>
            </g>
        </g>
    </g>
</svg>
