<?xml version="1.0" encoding="UTF-8" standalone="no"?>
<!DOCTYPE svg PUBLIC "-//W3C//DTD SVG 1.1//EN" "http://www.w3.org/Graphics/SVG/1.1/DTD/svg11.dtd">
<svg width="100%" height="100%" viewBox="0 0 673 52" version="1.1" xmlns="http://www.w3.org/2000/svg" xmlns:xlink="http://www.w3.org/1999/xlink" xml:space="preserve" xmlns:serif="http://www.serif.com/" style="fill-rule:evenodd;clip-rule:evenodd;stroke-linejoin:round;stroke-miterlimit:2;">
    <g transform="matrix(1,0,0,1,0,1)">
        <g transform="matrix(1,0,0,1,-1267,-1129.25)">
            <g transform="matrix(1.47431,-2.77556e-17,-8.32667e-17,1.47431,1296,1154)">
                <path d="M0,-17.466C-9.64,-17.466 -17.466,-9.64 -17.466,0C-17.466,9.64 -9.64,17.466 0,17.466C9.64,17.466 17.466,9.64 17.466,0C17.466,-9.64 9.64,-17.466 0,-17.466ZM0,-15.092C8.329,-15.092 15.092,-8.329 15.092,0C15.092,8.329 8.329,15.092 0,15.092C-8.329,15.092 -15.092,8.329 -15.092,0C-15.092,-8.329 -8.329,-15.092 0,-15.092Z" style="fill:rgb(221,221,221);"/>
            </g>
            <g transform="matrix(1,0,0,1,124,-47)">
                <path d="M1184.22,1200.12C1184.24,1200.41 1184.25,1200.7 1184.25,1201C1184.25,1207.76 1178.76,1213.25 1172,1213.25C1165.24,1213.25 1159.75,1207.76 1159.75,1201C1159.75,1200.7 1159.76,1200.41 1159.78,1200.12C1159.85,1199.16 1159.12,1198.32 1158.16,1198.25C1157.19,1198.19 1156.36,1198.91 1156.29,1199.88C1156.26,1200.25 1156.25,1200.62 1156.25,1201C1156.25,1209.69 1163.31,1216.75 1172,1216.75C1180.69,1216.75 1187.75,1209.69 1187.75,1201C1187.75,1200.62 1187.74,1200.25 1187.71,1199.88C1187.64,1198.91 1186.81,1198.19 1185.84,1198.25C1184.88,1198.32 1184.15,1199.16 1184.22,1200.12Z" style="fill:rgb(221,221,221);"/>
            </g>
        </g>
        <g transform="matrix(1,0,0,1,-775.6,-1129.25)">
            <g transform="matrix(0.276433,-5.20417e-18,-1.56125e-17,0.276433,1287.88,1145.5)">
                <path d="M0,-22.609C-12.479,-22.609 -22.609,-12.479 -22.609,0C-22.609,12.479 -12.479,22.609 0,22.609C12.479,22.609 22.609,12.479 22.609,0C22.609,-12.479 12.479,-22.609 0,-22.609ZM0,-9.948C5.491,-9.948 9.948,-5.491 9.948,0C9.948,5.491 5.491,9.948 0,9.948C-5.491,9.948 -9.948,5.491 -9.948,0C-9.948,-5.491 -5.491,-9.948 0,-9.948Z" style="fill:rgb(221,221,221);"/>
            </g>
            <g transform="matrix(0.3,0,0,0.1875,1132.62,1149.44)">
                <path d="M537.222,15L537.222,31C537.222,37.868 540.707,43.444 545,43.444C549.293,43.444 552.778,37.868 552.778,31L552.778,15C552.778,8.132 549.293,2.556 545,2.556C540.707,2.556 537.222,8.132 537.222,15Z" style="fill:rgb(221,221,221);"/>
            </g>
            <g transform="matrix(1.47431,-2.77556e-17,-8.32667e-17,1.47431,1296,1154)">
                <path d="M0,-17.466C-9.64,-17.466 -17.466,-9.64 -17.466,0C-17.466,9.64 -9.64,17.466 0,17.466C9.64,17.466 17.466,9.64 17.466,0C17.466,-9.64 9.64,-17.466 0,-17.466ZM0,-15.092C8.329,-15.092 15.092,-8.329 15.092,0C15.092,8.329 8.329,15.092 0,15.092C-8.329,15.092 -15.092,8.329 -15.092,0C-15.092,-8.329 -8.329,-15.092 0,-15.092Z" style="fill:rgb(221,221,221);"/>
            </g>
        </g>
        <g transform="matrix(1,0,0,1,-898.45,-1129.25)">
            <g transform="matrix(0.276433,-5.20417e-18,-1.56125e-17,0.276433,1304.12,1145.5)">
                <path d="M0,-22.609C-12.479,-22.609 -22.609,-12.479 -22.609,0C-22.609,12.479 -12.479,22.609 0,22.609C12.479,22.609 22.609,12.479 22.609,0C22.609,-12.479 12.479,-22.609 0,-22.609ZM0,-9.948C5.491,-9.948 9.948,-5.491 9.948,0C9.948,5.491 5.491,9.948 0,9.948C-5.491,9.948 -9.948,5.491 -9.948,0C-9.948,-5.491 -5.491,-9.948 0,-9.948Z" style="fill:rgb(221,221,221);"/>
            </g>
            <g transform="matrix(1,0,0,1,124,-47)">
                <path d="M1184.22,1200.12C1184.24,1200.41 1184.25,1200.7 1184.25,1201C1184.25,1207.76 1178.76,1213.25 1172,1213.25C1165.24,1213.25 1159.75,1207.76 1159.75,1201C1159.75,1200.7 1159.76,1200.41 1159.78,1200.12C1159.85,1199.16 1159.12,1198.32 1158.16,1198.25C1157.19,1198.19 1156.36,1198.91 1156.29,1199.88C1156.26,1200.25 1156.25,1200.62 1156.25,1201C1156.25,1209.69 1163.31,1216.75 1172,1216.75C1180.69,1216.75 1187.75,1209.69 1187.75,1201C1187.75,1200.62 1187.74,1200.25 1187.71,1199.88C1187.64,1198.91 1186.81,1198.19 1185.84,1198.25C1184.88,1198.32 1184.15,1199.16 1184.22,1200.12Z" style="fill:rgb(221,221,221);"/>
            </g>
        </g>
        <g transform="matrix(1,0,0,1,-652.75,-1129.25)">
            <g transform="matrix(0.3,0,0,0.1875,1132.62,1149.44)">
                <path d="M537.222,15L537.222,31C537.222,37.868 540.707,43.444 545,43.444C549.293,43.444 552.778,37.868 552.778,31L552.778,15C552.778,8.132 549.293,2.556 545,2.556C540.707,2.556 537.222,8.132 537.222,15Z" style="fill:rgb(221,221,221);"/>
            </g>
            <g transform="matrix(1,0,0,1,124,-47)">
                <path d="M1184.22,1200.12C1184.24,1200.41 1184.25,1200.7 1184.25,1201C1184.25,1207.76 1178.76,1213.25 1172,1213.25C1165.24,1213.25 1159.75,1207.76 1159.75,1201C1159.75,1200.7 1159.76,1200.41 1159.78,1200.12C1159.85,1199.16 1159.12,1198.32 1158.16,1198.25C1157.19,1198.19 1156.36,1198.91 1156.29,1199.88C1156.26,1200.25 1156.25,1200.62 1156.25,1201C1156.25,1209.69 1163.31,1216.75 1172,1216.75C1180.69,1216.75 1187.75,1209.69 1187.75,1201C1187.75,1200.62 1187.74,1200.25 1187.71,1199.88C1187.64,1198.91 1186.81,1198.19 1185.84,1198.25C1184.88,1198.32 1184.15,1199.16 1184.22,1200.12Z" style="fill:rgb(221,221,221);"/>
            </g>
        </g>
        <g transform="matrix(1,0,0,1,-1144.15,-1129.25)">
            <g transform="matrix(0.276433,-5.20417e-18,-1.56125e-17,0.276433,1287.88,1145.5)">
                <path d="M0,-22.609C-12.479,-22.609 -22.609,-12.479 -22.609,0C-22.609,12.479 -12.479,22.609 0,22.609C12.479,22.609 22.609,12.479 22.609,0C22.609,-12.479 12.479,-22.609 0,-22.609ZM0,-9.948C5.491,-9.948 9.948,-5.491 9.948,0C9.948,5.491 5.491,9.948 0,9.948C-5.491,9.948 -9.948,5.491 -9.948,0C-9.948,-5.491 -5.491,-9.948 0,-9.948Z" style="fill:rgb(221,221,221);"/>
            </g>
            <g transform="matrix(0.3,0,0,0.1875,1132.62,1149.44)">
                <path d="M537.222,15L537.222,31C537.222,37.868 540.707,43.444 545,43.444C549.293,43.444 552.778,37.868 552.778,31L552.778,15C552.778,8.132 549.293,2.556 545,2.556C540.707,2.556 537.222,8.132 537.222,15Z" style="fill:rgb(221,221,221);"/>
            </g>
            <g transform="matrix(1,0,0,1,124,-47)">
                <path d="M1184.22,1200.12C1184.24,1200.41 1184.25,1200.7 1184.25,1201C1184.25,1207.76 1178.76,1213.25 1172,1213.25C1165.24,1213.25 1159.75,1207.76 1159.75,1201C1159.75,1200.7 1159.76,1200.41 1159.78,1200.12C1159.85,1199.16 1159.12,1198.32 1158.16,1198.25C1157.19,1198.19 1156.36,1198.91 1156.29,1199.88C1156.26,1200.25 1156.25,1200.62 1156.25,1201C1156.25,1209.69 1163.31,1216.75 1172,1216.75C1180.69,1216.75 1187.75,1209.69 1187.75,1201C1187.75,1200.62 1187.74,1200.25 1187.71,1199.88C1187.64,1198.91 1186.81,1198.19 1185.84,1198.25C1184.88,1198.32 1184.15,1199.16 1184.22,1200.12Z" style="fill:rgb(221,221,221);"/>
            </g>
        </g>
        <g transform="matrix(1,0,0,1,-1021.3,-1129.25)">
            <g transform="matrix(0.276433,-5.20417e-18,-1.56125e-17,0.276433,1287.88,1145.5)">
                <path d="M0,-22.609C-12.479,-22.609 -22.609,-12.479 -22.609,0C-22.609,12.479 -12.479,22.609 0,22.609C12.479,22.609 22.609,12.479 22.609,0C22.609,-12.479 12.479,-22.609 0,-22.609ZM0,-9.948C5.491,-9.948 9.948,-5.491 9.948,0C9.948,5.491 5.491,9.948 0,9.948C-5.491,9.948 -9.948,5.491 -9.948,0C-9.948,-5.491 -5.491,-9.948 0,-9.948Z" style="fill:rgb(221,221,221);"/>
            </g>
            <g transform="matrix(0.276433,-5.20417e-18,-1.56125e-17,0.276433,1304.12,1145.5)">
                <path d="M0,-22.609C-12.479,-22.609 -22.609,-12.479 -22.609,0C-22.609,12.479 -12.479,22.609 0,22.609C12.479,22.609 22.609,12.479 22.609,0C22.609,-12.479 12.479,-22.609 0,-22.609ZM0,-9.948C5.491,-9.948 9.948,-5.491 9.948,0C9.948,5.491 5.491,9.948 0,9.948C-5.491,9.948 -9.948,5.491 -9.948,0C-9.948,-5.491 -5.491,-9.948 0,-9.948Z" style="fill:rgb(221,221,221);"/>
            </g>
            <g transform="matrix(1.47431,-2.77556e-17,-8.32667e-17,1.47431,1296,1154)">
                <path d="M0,-17.466C-9.64,-17.466 -17.466,-9.64 -17.466,0C-17.466,9.64 -9.64,17.466 0,17.466C9.64,17.466 17.466,9.64 17.466,0C17.466,-9.64 9.64,-17.466 0,-17.466ZM0,-15.092C8.329,-15.092 15.092,-8.329 15.092,0C15.092,8.329 8.329,15.092 0,15.092C-8.329,15.092 -15.092,8.329 -15.092,0C-15.092,-8.329 -8.329,-15.092 0,-15.092Z" style="fill:rgb(221,221,221);"/>
            </g>
        </g>
    </g>
</svg>
