<?xml version="1.0" encoding="UTF-8" standalone="no"?>
<!DOCTYPE svg PUBLIC "-//W3C//DTD SVG 1.1//EN" "http://www.w3.org/Graphics/SVG/1.1/DTD/svg11.dtd">
<svg width="100%" height="100%" viewBox="0 0 256 68" version="1.1" xmlns="http://www.w3.org/2000/svg" xmlns:xlink="http://www.w3.org/1999/xlink" xml:space="preserve" xmlns:serif="http://www.serif.com/" style="fill-rule:evenodd;clip-rule:evenodd;stroke-linejoin:round;stroke-miterlimit:2;">
    <rect id="Artboard2" x="0" y="0" width="256" height="68" style="fill:none;"/>
    <clipPath id="_clip1">
        <rect id="Artboard21" serif:id="Artboard2" x="0" y="0" width="256" height="68"/>
    </clipPath>
    <g clip-path="url(#_clip1)">
        <g id="Artboard1" transform="matrix(2.46154,0,0,0.772727,44.3077,11.5909)">
            <rect x="-18" y="-15" width="104" height="88" style="fill:none;"/>
            <g transform="matrix(0.389532,0,0,1.24086,-13.8539,-100.566)">
                <path d="M244.004,71.878C244.004,71.878 243.396,74.73 239.709,78.374C235.02,83.007 225.701,89.238 207.288,95.833C171.117,108.788 94.443,109.704 47.021,97.468C12.892,88.663 8.938,74.506 8.938,74.506C8.666,73.437 7.576,72.789 6.506,73.062C5.437,73.334 4.789,74.424 5.062,75.494C5.062,75.494 8.851,91.751 46.022,101.342C94.138,113.756 171.936,112.743 208.637,99.599C227.912,92.695 237.612,86.069 242.52,81.219C248.088,75.717 247.999,72.057 247.999,72.057C248.031,70.954 247.16,70.032 246.057,70.001C244.975,69.97 244.069,70.806 244.004,71.878Z" style="fill:rgb(221,221,221);"/>
            </g>
        </g>
    </g>
</svg>
